<svg xmlns="http://www.w3.org/2000/svg" xmlns:xlink="http://www.w3.org/1999/xlink" contentStyleType="text/css" height="1143px" preserveAspectRatio="none" style="width:428px;height:1143px;background:#FFFFFF;" version="1.1" viewBox="0 0 428 1143" width="428px" zoomAndPan="magnify"><defs/><g><!--entity Usuario--><g id="elem_Usuario"><ellipse cx="55.6021" cy="718.5" fill="#F1F1F1" rx="8" ry="8" style="stroke:#181818;stroke-width:0.5;"/><path d="M55.6021,726.5 L55.6021,753.5 M42.6021,734.5 L68.6021,734.5 M55.6021,753.5 L42.6021,768.5 M55.6021,753.5 L68.6021,768.5 " fill="none" style="stroke:#181818;stroke-width:0.5;"/><text fill="#000000" font-family="sans-serif" font-size="14" lengthAdjust="spacing" textLength="53.2041" x="29" y="782.9951">Usuario</text></g><!--entity Administrador--><g id="elem_Administrador"><ellipse cx="55.54" cy="144.5" fill="#F1F1F1" rx="8" ry="8" style="stroke:#181818;stroke-width:0.5;"/><path d="M55.54,152.5 L55.54,179.5 M42.54,160.5 L68.54,160.5 M55.54,179.5 L42.54,194.5 M55.54,179.5 L68.54,194.5 " fill="none" style="stroke:#181818;stroke-width:0.5;"/><text fill="#000000" font-family="sans-serif" font-size="14" lengthAdjust="spacing" textLength="99.0801" x="6" y="208.9951">Administrador</text></g><g id="elem_Registrarse"><ellipse cx="293.885" cy="409.977" fill="#F1F1F1" rx="65.385" ry="15.477" style="stroke:#181818;stroke-width:0.5;"/><text fill="#000000" font-family="sans-serif" font-size="14" lengthAdjust="spacing" textLength="79.8984" x="250.9358" y="413.7246">Registrarse</text></g><g id="elem_Iniciar sesi&#243;n"><ellipse cx="294.1192" cy="476.8238" fill="#F1F1F1" rx="69.6192" ry="16.3238" style="stroke:#181818;stroke-width:0.5;"/><text fill="#000000" font-family="sans-serif" font-size="14" lengthAdjust="spacing" textLength="91.793" x="245.2227" y="480.5714">Iniciar sesi&#243;n</text></g><g id="elem_Cambiar contrase&#241;a"><ellipse cx="294.0583" cy="548.9117" fill="#F1F1F1" rx="90.0583" ry="20.4117" style="stroke:#181818;stroke-width:0.5;"/><text fill="#000000" font-family="sans-serif" font-size="14" lengthAdjust="spacing" textLength="141.873" x="223.1218" y="551.7583">Cambiar contrase&#241;a</text></g><g id="elem_Listar asociaciones"><ellipse cx="294.0742" cy="624.1148" fill="#F1F1F1" rx="86.0742" ry="19.6148" style="stroke:#181818;stroke-width:0.5;"/><text fill="#000000" font-family="sans-serif" font-size="14" lengthAdjust="spacing" textLength="132.7949" x="227.6767" y="626.9615">Listar asociaciones</text></g><g id="elem_Ver detalles de una asociaci&#243;n"><ellipse cx="293.8355" cy="706.0671" fill="#F1F1F1" rx="123.3355" ry="27.0671" style="stroke:#181818;stroke-width:0.5;"/><text fill="#000000" font-family="sans-serif" font-size="14" lengthAdjust="spacing" textLength="214.457" x="186.6069" y="708.9138">Ver detalles de una asociaci&#243;n</text></g><g id="elem_Unirse a una asociaci&#243;n"><ellipse cx="294.1358" cy="791.1272" fill="#F1F1F1" rx="101.1358" ry="22.6272" style="stroke:#181818;stroke-width:0.5;"/><text fill="#000000" font-family="sans-serif" font-size="14" lengthAdjust="spacing" textLength="166.5576" x="210.857" y="793.9738">Unirse a una asociaci&#243;n</text></g><g id="elem_Salir de una asociaci&#243;n"><ellipse cx="293.9798" cy="871.196" fill="#F1F1F1" rx="98.9798" ry="22.196" style="stroke:#181818;stroke-width:0.5;"/><text fill="#000000" font-family="sans-serif" font-size="14" lengthAdjust="spacing" textLength="161.8066" x="213.0764" y="874.0426">Salir de una asociaci&#243;n</text></g><g id="elem_Publicar un mensaje"><ellipse cx="294.1852" cy="948.937" fill="#F1F1F1" rx="90.1852" ry="20.437" style="stroke:#181818;stroke-width:0.5;"/><text fill="#000000" font-family="sans-serif" font-size="14" lengthAdjust="spacing" textLength="142.1602" x="223.1052" y="951.7837">Publicar un mensaje</text></g><g id="elem_Ver mensajes de una asociaci&#243;n"><ellipse cx="293.7794" cy="1033.1559" fill="#F1F1F1" rx="128.7794" ry="28.1559" style="stroke:#181818;stroke-width:0.5;"/><text fill="#000000" font-family="sans-serif" font-size="14" lengthAdjust="spacing" textLength="225.9961" x="180.7814" y="1036.0026">Ver mensajes de una asociaci&#243;n</text></g><g id="elem_Crear asociaci&#243;n"><ellipse cx="294.1934" cy="24.2387" fill="#F1F1F1" rx="79.1934" ry="18.2387" style="stroke:#181818;stroke-width:0.5;"/><text fill="#000000" font-family="sans-serif" font-size="14" lengthAdjust="spacing" textLength="116.5596" x="233.9378" y="27.7088">Crear asociaci&#243;n</text></g><g id="elem_Actualizar asociaci&#243;n"><ellipse cx="294.1696" cy="97.9339" fill="#F1F1F1" rx="92.6696" ry="20.9339" style="stroke:#181818;stroke-width:0.5;"/><text fill="#000000" font-family="sans-serif" font-size="14" lengthAdjust="spacing" textLength="147.7588" x="220.2902" y="100.7806">Actualizar asociaci&#243;n</text></g><g id="elem_Eliminar asociaci&#243;n"><ellipse cx="294.2294" cy="173.8459" fill="#F1F1F1" rx="87.2294" ry="19.8459" style="stroke:#181818;stroke-width:0.5;"/><text fill="#000000" font-family="sans-serif" font-size="14" lengthAdjust="spacing" textLength="135.4404" x="226.5092" y="176.6926">Eliminar asociaci&#243;n</text></g><g id="elem_Gestionar mensajes"><ellipse cx="293.8585" cy="249.1717" fill="#F1F1F1" rx="88.8585" ry="20.1717" style="stroke:#181818;stroke-width:0.5;"/><text fill="#000000" font-family="sans-serif" font-size="14" lengthAdjust="spacing" textLength="139.1523" x="224.2823" y="252.0184">Gestionar mensajes</text></g><g id="elem_GMN30"><path d="M178.5,1096 L178.5,1136.2656 L409.7979,1136.2656 L409.7979,1106 L399.7979,1096 L178.5,1096 " fill="#FEFFDD" style="stroke:#181818;stroke-width:0.5;"/><path d="M399.7979,1096 L399.7979,1106 L409.7979,1106 L399.7979,1096 " fill="#FEFFDD" style="stroke:#181818;stroke-width:1;"/><text fill="#000000" font-family="sans-serif" font-size="13" lengthAdjust="spacing" textLength="210.2979" x="184.5" y="1113.0669">Los usuarios pueden interactuar</text><text fill="#000000" font-family="sans-serif" font-size="13" lengthAdjust="spacing" textLength="192.7275" x="184.5" y="1128.1997">con asociaciones y mensajes.</text></g><g id="elem_GMN33"><path d="M167.5,304.5 L167.5,359.8984 L420.6655,359.8984 L420.6655,314.5 L410.6655,304.5 L167.5,304.5 " fill="#FEFFDD" style="stroke:#181818;stroke-width:0.5;"/><path d="M410.6655,304.5 L410.6655,314.5 L420.6655,314.5 L410.6655,304.5 " fill="#FEFFDD" style="stroke:#181818;stroke-width:1;"/><text fill="#000000" font-family="sans-serif" font-size="13" lengthAdjust="spacing" textLength="144.1108" x="173.5" y="321.5669">El administrador tiene</text><text fill="#000000" font-family="sans-serif" font-size="13" lengthAdjust="spacing" textLength="232.1655" x="173.5" y="336.6997">permisos avanzados para gestionar</text><text fill="#000000" font-family="sans-serif" font-size="13" lengthAdjust="spacing" textLength="158.1328" x="173.5" y="351.8325">asociaciones y usuarios.</text></g><!--link Usuario to Registrarse--><g id="link_Usuario_Registrarse"><path d="M58.89,709.96 C65.06,645.37 87.02,514.3 165,443 C182.78,426.74 201.6141,419.383 224.6041,415.043 " fill="none" id="Usuario-to-Registrarse" style="stroke:#181818;stroke-width:1;"/><polygon fill="#181818" points="230.5,413.93,220.9142,411.6689,225.5868,414.8575,222.3982,419.5301,230.5,413.93" style="stroke:#181818;stroke-width:1;"/></g><!--link Usuario to Iniciar sesi?n--><g id="link_Usuario_Iniciar sesi&#243;n"><path d="M63.43,709.86 C75.02,657.22 103.42,562.93 165,511 C182.75,496.03 200.5527,488.835 222.7127,484.095 " fill="none" id="Usuario-to-Iniciar sesi&#243;n" style="stroke:#181818;stroke-width:1;"/><polygon fill="#181818" points="228.58,482.84,218.9424,480.811,223.6906,483.8858,220.6158,488.634,228.58,482.84" style="stroke:#181818;stroke-width:1;"/></g><!--link Usuario to Cambiar contrase?a--><g id="link_Usuario_Cambiar contrase&#241;a"><path d="M72.82,709.83 C90.41,673.14 121.8,618.71 165,587 C181.35,575 195.7183,568.4342 215.1283,562.7942 " fill="none" id="Usuario-to-Cambiar contrase&#241;a" style="stroke:#181818;stroke-width:1;"/><polygon fill="#181818" points="220.89,561.12,211.1313,559.7902,216.0886,562.5152,213.3636,567.4724,220.89,561.12" style="stroke:#181818;stroke-width:1;"/></g><!--link Usuario to Listar asociaciones--><g id="link_Usuario_Listar asociaciones"><path d="M82.14,722.98 C102.95,703.88 133.86,678.19 165,662 C185.46,651.36 203.5755,644.8437 225.1355,638.9037 " fill="none" id="Usuario-to-Listar asociaciones" style="stroke:#181818;stroke-width:1;"/><polygon fill="#181818" points="230.92,637.31,221.1808,635.8442,226.0996,638.6381,223.3057,643.5568,230.92,637.31" style="stroke:#181818;stroke-width:1;"/></g><!--link Usuario to Ver detalles de una asociaci?n--><g id="link_Usuario_Ver detalles de una asociaci&#243;n"><path d="M82.26,743.43 C109.97,738.5 149.8024,731.4289 191.5924,724.0089 " fill="none" id="Usuario-to-Ver detalles de una asociaci&#243;n" style="stroke:#181818;stroke-width:1;"/><polygon fill="#181818" points="197.5,722.96,187.9393,720.595,192.577,723.8341,189.3379,728.4718,197.5,722.96" style="stroke:#181818;stroke-width:1;"/></g><!--link Usuario to Unirse a una asociaci?n--><g id="link_Usuario_Unirse a una asociaci&#243;n"><path d="M82.26,752.68 C113.99,758.45 163.4169,767.4361 209.4269,775.8061 " fill="none" id="Usuario-to-Unirse a una asociaci&#243;n" style="stroke:#181818;stroke-width:1;"/><polygon fill="#181818" points="215.33,776.88,207.1912,771.3338,210.4107,775.9851,205.7594,779.2046,215.33,776.88" style="stroke:#181818;stroke-width:1;"/></g><!--link Usuario to Salir de una asociaci?n--><g id="link_Usuario_Salir de una asociaci&#243;n"><path d="M82.35,771.98 C103.29,790.32 134.25,815.07 165,831 C184.02,840.85 200.157,847.0526 220.387,853.1726 " fill="none" id="Usuario-to-Salir de una asociaci&#243;n" style="stroke:#181818;stroke-width:1;"/><polygon fill="#181818" points="226.13,854.91,218.6738,848.4753,221.3442,853.4622,216.3573,856.1326,226.13,854.91" style="stroke:#181818;stroke-width:1;"/></g><!--link Usuario to Publicar un mensaje--><g id="link_Usuario_Publicar un mensaje"><path d="M72.53,786.29 C90,823.44 121.38,878.79 165,911 C181.32,923.05 195.6681,929.6266 215.0881,935.2666 " fill="none" id="Usuario-to-Publicar un mensaje" style="stroke:#181818;stroke-width:1;"/><polygon fill="#181818" points="220.85,936.94,213.3227,930.5886,216.0484,935.5455,211.0915,938.2712,220.85,936.94" style="stroke:#181818;stroke-width:1;"/></g><!--link Usuario to Ver mensajes de una asociaci?n--><g id="link_Usuario_Ver mensajes de una asociaci&#243;n"><path d="M64.07,786.17 C76.37,838.48 105.53,932.17 165,987 C176.72,997.8 185.643,1003.7514 200.543,1010.1214 " fill="none" id="Usuario-to-Ver mensajes de una asociaci&#243;n" style="stroke:#181818;stroke-width:1;"/><polygon fill="#181818" points="206.06,1012.48,199.3569,1005.2641,201.4625,1010.5145,196.2121,1012.6201,206.06,1012.48" style="stroke:#181818;stroke-width:1;"/></g><!--link Administrador to Crear asociaci?n--><g id="link_Administrador_Crear asociaci&#243;n"><path d="M83.49,135.93 C103.32,110.62 132.41,78.57 165,59 C184.36,47.38 201.8244,40.966 223.2044,35.696 " fill="none" id="Administrador-to-Crear asociaci&#243;n" style="stroke:#181818;stroke-width:1;"/><polygon fill="#181818" points="229.03,34.26,219.3342,32.5302,224.1753,35.4566,221.2489,40.2977,229.03,34.26" style="stroke:#181818;stroke-width:1;"/></g><!--link Administrador to Actualizar asociaci?n--><g id="link_Administrador_Actualizar asociaci&#243;n"><path d="M105.21,156.38 C123.85,149.78 145.34,142.36 165,136 C188.05,128.55 207.8529,122.5398 230.0329,116.0298 " fill="none" id="Administrador-to-Actualizar asociaci&#243;n" style="stroke:#181818;stroke-width:1;"/><polygon fill="#181818" points="235.79,114.34,226.0278,113.0366,230.9924,115.7481,228.2808,120.7127,235.79,114.34" style="stroke:#181818;stroke-width:1;"/></g><!--link Administrador to Eliminar asociaci?n--><g id="link_Administrador_Eliminar asociaci&#243;n"><path d="M105.22,174 C134.42,174 166.41,174 200.57,174 " fill="none" id="Administrador-to-Eliminar asociaci&#243;n" style="stroke:#181818;stroke-width:1;"/><polygon fill="#181818" points="206.57,174,197.57,170,201.57,174,197.57,178,206.57,174" style="stroke:#181818;stroke-width:1;"/></g><!--link Administrador to Gestionar mensajes--><g id="link_Administrador_Gestionar mensajes"><path d="M105.24,191.09 C123.88,197.5 145.37,204.74 165,211 C188.96,218.64 209.8526,224.9413 232.5926,231.6113 " fill="none" id="Administrador-to-Gestionar mensajes" style="stroke:#181818;stroke-width:1;"/><polygon fill="#181818" points="238.35,233.3,230.8397,226.9286,233.5521,231.8927,228.588,234.6052,238.35,233.3" style="stroke:#181818;stroke-width:1;"/></g><!--link Usuario to GMN30--><g id="link_Usuario_GMN30"><path d="M57.9,786.2 C62.5,854.77 82.11,998.99 165,1079 C172.07,1085.83 180.33,1091.41 189.17,1095.97 " fill="none" id="Usuario-GMN30" style="stroke:#181818;stroke-width:1;stroke-dasharray:7.0,7.0;"/></g><!--link Administrador to GMN33--><g id="link_Administrador_GMN33"><path d="M85.72,212.13 C105.8,236.12 134.29,266.18 165,286 C175.91,293.04 188.04,299.18 200.37,304.48 " fill="none" id="Administrador-GMN33" style="stroke:#181818;stroke-width:1;stroke-dasharray:7.0,7.0;"/></g><!--SRC=[ZPB1JiCm38RlVGeVuJ0U0Mb24qBQ0J6DkvTwnIXr9Zj1Oc-5U8Iz6ExeDbecRRUc_nVxI-98wmmvWNBpbg5cfP0vILLXo4bXQGMLKx-QrYqBMrQiarPL7y9aSWytBzJi4pMw7IPFme5HmSXuzosZz07RLPU69BxRQFU58sBkTHr0Iruck1pPY7WbXPeonaZc7r04Z_Z_ZajXbmIyW2qmibwkzbnMaOFx5O6MnF2TpjZroNcxQd2l_RKe_Jdp7Zj3JKCkhhcz0fr5zdzNW8zatGJWITeD9MNgPoIjZrC1C4y6vNTbi2bKam1B9iNEJ9tmTnqy7NmUwzvL93LqfSSDXeC6C8k00zFC9EJ1XhHbyzxuWRBro2rG4Ph38PmPTJ_edhh_0000]--></g></svg>