<svg xmlns="http://www.w3.org/2000/svg" xmlns:xlink="http://www.w3.org/1999/xlink" contentStyleType="text/css" height="820px" preserveAspectRatio="none" style="width:1102px;height:820px;background:#FFFFFF;" version="1.1" viewBox="0 0 1102 820" width="1102px" zoomAndPan="magnify"><defs/><g><!--cluster Backend--><g id="cluster_Backend"><path d="M8.5,6 L76.7109,6 A3.75,3.75 0 0 1 79.2109,8.5 L86.2109,28.2969 L1092.5,28.2969 A2.5,2.5 0 0 1 1095,30.7969 L1095,810.5 A2.5,2.5 0 0 1 1092.5,813 L8.5,813 A2.5,2.5 0 0 1 6,810.5 L6,8.5 A2.5,2.5 0 0 1 8.5,6 " fill="none" style="stroke:#000000;stroke-width:1.5;"/><line style="stroke:#000000;stroke-width:1.5;" x1="6" x2="86.2109" y1="28.2969" y2="28.2969"/><text fill="#000000" font-family="sans-serif" font-size="14" font-weight="bold" lengthAdjust="spacing" textLength="67.2109" x="10" y="20.9951">Backend</text></g><!--cluster Config--><g id="cluster_Config"><path d="M766.5,49 L818.2705,49 A3.75,3.75 0 0 1 820.7705,51.5 L827.7705,71.2969 L1056.5,71.2969 A2.5,2.5 0 0 1 1059,73.7969 L1059,145.5 A2.5,2.5 0 0 1 1056.5,148 L766.5,148 A2.5,2.5 0 0 1 764,145.5 L764,51.5 A2.5,2.5 0 0 1 766.5,49 " fill="none" style="stroke:#000000;stroke-width:1.5;"/><line style="stroke:#000000;stroke-width:1.5;" x1="764" x2="827.7705" y1="71.2969" y2="71.2969"/><text fill="#000000" font-family="sans-serif" font-size="14" font-weight="bold" lengthAdjust="spacing" textLength="50.7705" x="768" y="63.9951">Config</text></g><!--cluster Constants--><g id="cluster_Constants"><path d="M572.5,49 L652.8242,49 A3.75,3.75 0 0 1 655.3242,51.5 L662.3242,71.2969 L713.5,71.2969 A2.5,2.5 0 0 1 716,73.7969 L716,145.5 A2.5,2.5 0 0 1 713.5,148 L572.5,148 A2.5,2.5 0 0 1 570,145.5 L570,51.5 A2.5,2.5 0 0 1 572.5,49 " fill="none" style="stroke:#000000;stroke-width:1.5;"/><line style="stroke:#000000;stroke-width:1.5;" x1="570" x2="662.3242" y1="71.2969" y2="71.2969"/><text fill="#000000" font-family="sans-serif" font-size="14" font-weight="bold" lengthAdjust="spacing" textLength="79.3242" x="574" y="63.9951">Constants</text></g><!--cluster Controllers--><g id="cluster_Controllers"><path d="M52.5,180 L140.9043,180 A3.75,3.75 0 0 1 143.4043,182.5 L150.4043,202.2969 L465.5,202.2969 A2.5,2.5 0 0 1 468,204.7969 L468,400.5 A2.5,2.5 0 0 1 465.5,403 L52.5,403 A2.5,2.5 0 0 1 50,400.5 L50,182.5 A2.5,2.5 0 0 1 52.5,180 " fill="none" style="stroke:#000000;stroke-width:1.5;"/><line style="stroke:#000000;stroke-width:1.5;" x1="50" x2="150.4043" y1="202.2969" y2="202.2969"/><text fill="#000000" font-family="sans-serif" font-size="14" font-weight="bold" lengthAdjust="spacing" textLength="87.4043" x="54" y="194.9951">Controllers</text></g><!--cluster Middleware--><g id="cluster_Middleware"><path d="M388.5,558 L481.3477,558 A3.75,3.75 0 0 1 483.8477,560.5 L490.8477,580.2969 L683.5,580.2969 A2.5,2.5 0 0 1 686,582.7969 L686,778.5 A2.5,2.5 0 0 1 683.5,781 L388.5,781 A2.5,2.5 0 0 1 386,778.5 L386,560.5 A2.5,2.5 0 0 1 388.5,558 " fill="none" style="stroke:#000000;stroke-width:1.5;"/><line style="stroke:#000000;stroke-width:1.5;" x1="386" x2="490.8477" y1="580.2969" y2="580.2969"/><text fill="#000000" font-family="sans-serif" font-size="14" font-weight="bold" lengthAdjust="spacing" textLength="91.8477" x="390" y="572.9951">Middleware</text></g><!--cluster Models--><g id="cluster_Models"><path d="M40.5,443 L97.6982,443 A3.75,3.75 0 0 1 100.1982,445.5 L107.1982,465.2969 L343.5,465.2969 A2.5,2.5 0 0 1 346,467.7969 L346,670.5 A2.5,2.5 0 0 1 343.5,673 L40.5,673 A2.5,2.5 0 0 1 38,670.5 L38,445.5 A2.5,2.5 0 0 1 40.5,443 " fill="none" style="stroke:#000000;stroke-width:1.5;"/><line style="stroke:#000000;stroke-width:1.5;" x1="38" x2="107.1982" y1="465.2969" y2="465.2969"/><text fill="#000000" font-family="sans-serif" font-size="14" font-weight="bold" lengthAdjust="spacing" textLength="56.1982" x="42" y="457.9951">Models</text></g><!--cluster Routes--><g id="cluster_Routes"><path d="M728.5,443 L784.3857,443 A3.75,3.75 0 0 1 786.8857,445.5 L793.8857,465.2969 L1060.5,465.2969 A2.5,2.5 0 0 1 1063,467.7969 L1063,670.5 A2.5,2.5 0 0 1 1060.5,673 L728.5,673 A2.5,2.5 0 0 1 726,670.5 L726,445.5 A2.5,2.5 0 0 1 728.5,443 " fill="none" style="stroke:#000000;stroke-width:1.5;"/><line style="stroke:#000000;stroke-width:1.5;" x1="726" x2="793.8857" y1="465.2969" y2="465.2969"/><text fill="#000000" font-family="sans-serif" font-size="14" font-weight="bold" lengthAdjust="spacing" textLength="54.8857" x="730" y="457.9951">Routes</text></g><!--class Server--><g id="elem_Server"><rect codeLine="2" fill="#F1F1F1" height="64.2969" id="Server" rx="2.5" ry="2.5" style="stroke:#181818;stroke-width:0.5;" width="85.9512" x="417" y="76"/><ellipse cx="435.6185" cy="92" fill="#ADD1B2" rx="11" ry="11" style="stroke:#181818;stroke-width:1;"/><path d="M438.5872,97.6406 Q438.0091,97.9375 437.3685,98.0781 Q436.7278,98.2344 436.0247,98.2344 Q433.5247,98.2344 432.1966,96.5938 Q430.8841,94.9375 430.8841,91.8125 Q430.8841,88.6875 432.1966,87.0313 Q433.5247,85.375 436.0247,85.375 Q436.7278,85.375 437.3685,85.5313 Q438.0247,85.6875 438.5872,85.9844 L438.5872,88.7031 Q437.9622,88.125 437.3685,87.8594 Q436.7747,87.5781 436.1497,87.5781 Q434.806,87.5781 434.1185,88.6563 Q433.431,89.7188 433.431,91.8125 Q433.431,93.9063 434.1185,94.9844 Q434.806,96.0469 436.1497,96.0469 Q436.7747,96.0469 437.3685,95.7813 Q437.9622,95.5 438.5872,94.9219 L438.5872,97.6406 Z " fill="#000000"/><text fill="#000000" font-family="sans-serif" font-size="14" lengthAdjust="spacing" textLength="45.9102" x="450.4226" y="96.8467">Server</text><line style="stroke:#181818;stroke-width:0.5;" x1="418" x2="501.9512" y1="108" y2="108"/><rect fill="none" height="6" style="stroke:#C82930;stroke-width:1;" width="6" x="425" y="118.6484"/><text fill="#000000" font-family="sans-serif" font-size="14" lengthAdjust="spacing" textLength="59.9512" x="437" y="124.9951">server.js</text><line style="stroke:#181818;stroke-width:0.5;" x1="418" x2="501.9512" y1="132.2969" y2="132.2969"/></g><!--class ConstantsJS--><g id="elem_ConstantsJS"><rect codeLine="6" fill="#F1F1F1" height="48" id="ConstantsJS" rx="2.5" ry="2.5" style="stroke:#181818;stroke-width:0.5;" width="115.248" x="927.5" y="84"/><ellipse cx="942.5" cy="100" fill="#ADD1B2" rx="11" ry="11" style="stroke:#181818;stroke-width:1;"/><path d="M945.4688,105.6406 Q944.8906,105.9375 944.25,106.0781 Q943.6094,106.2344 942.9063,106.2344 Q940.4063,106.2344 939.0781,104.5938 Q937.7656,102.9375 937.7656,99.8125 Q937.7656,96.6875 939.0781,95.0313 Q940.4063,93.375 942.9063,93.375 Q943.6094,93.375 944.25,93.5313 Q944.9063,93.6875 945.4688,93.9844 L945.4688,96.7031 Q944.8438,96.125 944.25,95.8594 Q943.6563,95.5781 943.0313,95.5781 Q941.6875,95.5781 941,96.6563 Q940.3125,97.7188 940.3125,99.8125 Q940.3125,101.9063 941,102.9844 Q941.6875,104.0469 943.0313,104.0469 Q943.6563,104.0469 944.25,103.7813 Q944.8438,103.5 945.4688,102.9219 L945.4688,105.6406 Z " fill="#000000"/><text fill="#000000" font-family="sans-serif" font-size="14" lengthAdjust="spacing" textLength="83.248" x="956.5" y="104.8467">ConstantsJS</text><line style="stroke:#181818;stroke-width:0.5;" x1="928.5" x2="1041.748" y1="116" y2="116"/><line style="stroke:#181818;stroke-width:0.5;" x1="928.5" x2="1041.748" y1="124" y2="124"/></g><!--class DatabaseJS--><g id="elem_DatabaseJS"><rect codeLine="7" fill="#F1F1F1" height="48" id="DatabaseJS" rx="2.5" ry="2.5" style="stroke:#181818;stroke-width:0.5;" width="111.8164" x="780" y="84"/><ellipse cx="795" cy="100" fill="#ADD1B2" rx="11" ry="11" style="stroke:#181818;stroke-width:1;"/><path d="M797.9688,105.6406 Q797.3906,105.9375 796.75,106.0781 Q796.1094,106.2344 795.4063,106.2344 Q792.9063,106.2344 791.5781,104.5938 Q790.2656,102.9375 790.2656,99.8125 Q790.2656,96.6875 791.5781,95.0313 Q792.9063,93.375 795.4063,93.375 Q796.1094,93.375 796.75,93.5313 Q797.4063,93.6875 797.9688,93.9844 L797.9688,96.7031 Q797.3438,96.125 796.75,95.8594 Q796.1563,95.5781 795.5313,95.5781 Q794.1875,95.5781 793.5,96.6563 Q792.8125,97.7188 792.8125,99.8125 Q792.8125,101.9063 793.5,102.9844 Q794.1875,104.0469 795.5313,104.0469 Q796.1563,104.0469 796.75,103.7813 Q797.3438,103.5 797.9688,102.9219 L797.9688,105.6406 Z " fill="#000000"/><text fill="#000000" font-family="sans-serif" font-size="14" lengthAdjust="spacing" textLength="79.8164" x="809" y="104.8467">DatabaseJS</text><line style="stroke:#181818;stroke-width:0.5;" x1="781" x2="890.8164" y1="116" y2="116"/><line style="stroke:#181818;stroke-width:0.5;" x1="781" x2="890.8164" y1="124" y2="124"/></g><!--class MessagesJS--><g id="elem_MessagesJS"><rect codeLine="10" fill="#F1F1F1" height="48" id="MessagesJS" rx="2.5" ry="2.5" style="stroke:#181818;stroke-width:0.5;" width="113.6689" x="586" y="84"/><ellipse cx="601" cy="100" fill="#ADD1B2" rx="11" ry="11" style="stroke:#181818;stroke-width:1;"/><path d="M603.9688,105.6406 Q603.3906,105.9375 602.75,106.0781 Q602.1094,106.2344 601.4063,106.2344 Q598.9063,106.2344 597.5781,104.5938 Q596.2656,102.9375 596.2656,99.8125 Q596.2656,96.6875 597.5781,95.0313 Q598.9063,93.375 601.4063,93.375 Q602.1094,93.375 602.75,93.5313 Q603.4063,93.6875 603.9688,93.9844 L603.9688,96.7031 Q603.3438,96.125 602.75,95.8594 Q602.1563,95.5781 601.5313,95.5781 Q600.1875,95.5781 599.5,96.6563 Q598.8125,97.7188 598.8125,99.8125 Q598.8125,101.9063 599.5,102.9844 Q600.1875,104.0469 601.5313,104.0469 Q602.1563,104.0469 602.75,103.7813 Q603.3438,103.5 603.9688,102.9219 L603.9688,105.6406 Z " fill="#000000"/><text fill="#000000" font-family="sans-serif" font-size="14" lengthAdjust="spacing" textLength="81.6689" x="615" y="104.8467">MessagesJS</text><line style="stroke:#181818;stroke-width:0.5;" x1="587" x2="698.6689" y1="116" y2="116"/><line style="stroke:#181818;stroke-width:0.5;" x1="587" x2="698.6689" y1="124" y2="124"/></g><!--class AssociationController--><g id="elem_AssociationController"><rect codeLine="13" fill="#F1F1F1" height="48" id="AssociationController" rx="2.5" ry="2.5" style="stroke:#181818;stroke-width:0.5;" width="180.8867" x="74.5" y="223"/><ellipse cx="89.5" cy="239" fill="#ADD1B2" rx="11" ry="11" style="stroke:#181818;stroke-width:1;"/><path d="M92.4688,244.6406 Q91.8906,244.9375 91.25,245.0781 Q90.6094,245.2344 89.9063,245.2344 Q87.4063,245.2344 86.0781,243.5938 Q84.7656,241.9375 84.7656,238.8125 Q84.7656,235.6875 86.0781,234.0313 Q87.4063,232.375 89.9063,232.375 Q90.6094,232.375 91.25,232.5313 Q91.9063,232.6875 92.4688,232.9844 L92.4688,235.7031 Q91.8438,235.125 91.25,234.8594 Q90.6563,234.5781 90.0313,234.5781 Q88.6875,234.5781 88,235.6563 Q87.3125,236.7188 87.3125,238.8125 Q87.3125,240.9063 88,241.9844 Q88.6875,243.0469 90.0313,243.0469 Q90.6563,243.0469 91.25,242.7813 Q91.8438,242.5 92.4688,241.9219 L92.4688,244.6406 Z " fill="#000000"/><text fill="#000000" font-family="sans-serif" font-size="14" lengthAdjust="spacing" textLength="148.8867" x="103.5" y="243.8467">AssociationController</text><line style="stroke:#181818;stroke-width:0.5;" x1="75.5" x2="254.3867" y1="255" y2="255"/><line style="stroke:#181818;stroke-width:0.5;" x1="75.5" x2="254.3867" y1="263" y2="263"/></g><!--class AuthController--><g id="elem_AuthController"><rect codeLine="14" fill="#F1F1F1" height="48" id="AuthController" rx="2.5" ry="2.5" style="stroke:#181818;stroke-width:0.5;" width="133.9854" x="291" y="223"/><ellipse cx="306" cy="239" fill="#ADD1B2" rx="11" ry="11" style="stroke:#181818;stroke-width:1;"/><path d="M308.9688,244.6406 Q308.3906,244.9375 307.75,245.0781 Q307.1094,245.2344 306.4063,245.2344 Q303.9063,245.2344 302.5781,243.5938 Q301.2656,241.9375 301.2656,238.8125 Q301.2656,235.6875 302.5781,234.0313 Q303.9063,232.375 306.4063,232.375 Q307.1094,232.375 307.75,232.5313 Q308.4063,232.6875 308.9688,232.9844 L308.9688,235.7031 Q308.3438,235.125 307.75,234.8594 Q307.1563,234.5781 306.5313,234.5781 Q305.1875,234.5781 304.5,235.6563 Q303.8125,236.7188 303.8125,238.8125 Q303.8125,240.9063 304.5,241.9844 Q305.1875,243.0469 306.5313,243.0469 Q307.1563,243.0469 307.75,242.7813 Q308.3438,242.5 308.9688,241.9219 L308.9688,244.6406 Z " fill="#000000"/><text fill="#000000" font-family="sans-serif" font-size="14" lengthAdjust="spacing" textLength="101.9854" x="320" y="243.8467">AuthController</text><line style="stroke:#181818;stroke-width:0.5;" x1="292" x2="423.9854" y1="255" y2="255"/><line style="stroke:#181818;stroke-width:0.5;" x1="292" x2="423.9854" y1="263" y2="263"/></g><!--class MessagesController--><g id="elem_MessagesController"><rect codeLine="15" fill="#F1F1F1" height="48" id="MessagesController" rx="2.5" ry="2.5" style="stroke:#181818;stroke-width:0.5;" width="169.8262" x="77" y="331"/><ellipse cx="92" cy="347" fill="#ADD1B2" rx="11" ry="11" style="stroke:#181818;stroke-width:1;"/><path d="M94.9688,352.6406 Q94.3906,352.9375 93.75,353.0781 Q93.1094,353.2344 92.4063,353.2344 Q89.9063,353.2344 88.5781,351.5938 Q87.2656,349.9375 87.2656,346.8125 Q87.2656,343.6875 88.5781,342.0313 Q89.9063,340.375 92.4063,340.375 Q93.1094,340.375 93.75,340.5313 Q94.4063,340.6875 94.9688,340.9844 L94.9688,343.7031 Q94.3438,343.125 93.75,342.8594 Q93.1563,342.5781 92.5313,342.5781 Q91.1875,342.5781 90.5,343.6563 Q89.8125,344.7188 89.8125,346.8125 Q89.8125,348.9063 90.5,349.9844 Q91.1875,351.0469 92.5313,351.0469 Q93.1563,351.0469 93.75,350.7813 Q94.3438,350.5 94.9688,349.9219 L94.9688,352.6406 Z " fill="#000000"/><text fill="#000000" font-family="sans-serif" font-size="14" lengthAdjust="spacing" textLength="137.8262" x="106" y="351.8467">MessagesController</text><line style="stroke:#181818;stroke-width:0.5;" x1="78" x2="245.8262" y1="363" y2="363"/><line style="stroke:#181818;stroke-width:0.5;" x1="78" x2="245.8262" y1="371" y2="371"/></g><!--class AuthJS--><g id="elem_AuthJS"><rect codeLine="18" fill="#F1F1F1" height="48" id="AuthJS" rx="2.5" ry="2.5" style="stroke:#181818;stroke-width:0.5;" width="77.8281" x="410" y="601"/><ellipse cx="425" cy="617" fill="#ADD1B2" rx="11" ry="11" style="stroke:#181818;stroke-width:1;"/><path d="M427.9688,622.6406 Q427.3906,622.9375 426.75,623.0781 Q426.1094,623.2344 425.4063,623.2344 Q422.9063,623.2344 421.5781,621.5938 Q420.2656,619.9375 420.2656,616.8125 Q420.2656,613.6875 421.5781,612.0313 Q422.9063,610.375 425.4063,610.375 Q426.1094,610.375 426.75,610.5313 Q427.4063,610.6875 427.9688,610.9844 L427.9688,613.7031 Q427.3438,613.125 426.75,612.8594 Q426.1563,612.5781 425.5313,612.5781 Q424.1875,612.5781 423.5,613.6563 Q422.8125,614.7188 422.8125,616.8125 Q422.8125,618.9063 423.5,619.9844 Q424.1875,621.0469 425.5313,621.0469 Q426.1563,621.0469 426.75,620.7813 Q427.3438,620.5 427.9688,619.9219 L427.9688,622.6406 Z " fill="#000000"/><text fill="#000000" font-family="sans-serif" font-size="14" lengthAdjust="spacing" textLength="45.8281" x="439" y="621.8467">AuthJS</text><line style="stroke:#181818;stroke-width:0.5;" x1="411" x2="486.8281" y1="633" y2="633"/><line style="stroke:#181818;stroke-width:0.5;" x1="411" x2="486.8281" y1="641" y2="641"/></g><!--class CheckRoleJS--><g id="elem_CheckRoleJS"><rect codeLine="19" fill="#F1F1F1" height="48" id="CheckRoleJS" rx="2.5" ry="2.5" style="stroke:#181818;stroke-width:0.5;" width="118.8779" x="523.5" y="601"/><ellipse cx="538.5" cy="617" fill="#ADD1B2" rx="11" ry="11" style="stroke:#181818;stroke-width:1;"/><path d="M541.4688,622.6406 Q540.8906,622.9375 540.25,623.0781 Q539.6094,623.2344 538.9063,623.2344 Q536.4063,623.2344 535.0781,621.5938 Q533.7656,619.9375 533.7656,616.8125 Q533.7656,613.6875 535.0781,612.0313 Q536.4063,610.375 538.9063,610.375 Q539.6094,610.375 540.25,610.5313 Q540.9063,610.6875 541.4688,610.9844 L541.4688,613.7031 Q540.8438,613.125 540.25,612.8594 Q539.6563,612.5781 539.0313,612.5781 Q537.6875,612.5781 537,613.6563 Q536.3125,614.7188 536.3125,616.8125 Q536.3125,618.9063 537,619.9844 Q537.6875,621.0469 539.0313,621.0469 Q539.6563,621.0469 540.25,620.7813 Q540.8438,620.5 541.4688,619.9219 L541.4688,622.6406 Z " fill="#000000"/><text fill="#000000" font-family="sans-serif" font-size="14" lengthAdjust="spacing" textLength="86.8779" x="552.5" y="621.8467">CheckRoleJS</text><line style="stroke:#181818;stroke-width:0.5;" x1="524.5" x2="641.3779" y1="633" y2="633"/><line style="stroke:#181818;stroke-width:0.5;" x1="524.5" x2="641.3779" y1="641" y2="641"/></g><!--class UploadJS--><g id="elem_UploadJS"><rect codeLine="20" fill="#F1F1F1" height="48" id="UploadJS" rx="2.5" ry="2.5" style="stroke:#181818;stroke-width:0.5;" width="94.0703" x="410" y="709"/><ellipse cx="425" cy="725" fill="#ADD1B2" rx="11" ry="11" style="stroke:#181818;stroke-width:1;"/><path d="M427.9688,730.6406 Q427.3906,730.9375 426.75,731.0781 Q426.1094,731.2344 425.4063,731.2344 Q422.9063,731.2344 421.5781,729.5938 Q420.2656,727.9375 420.2656,724.8125 Q420.2656,721.6875 421.5781,720.0313 Q422.9063,718.375 425.4063,718.375 Q426.1094,718.375 426.75,718.5313 Q427.4063,718.6875 427.9688,718.9844 L427.9688,721.7031 Q427.3438,721.125 426.75,720.8594 Q426.1563,720.5781 425.5313,720.5781 Q424.1875,720.5781 423.5,721.6563 Q422.8125,722.7188 422.8125,724.8125 Q422.8125,726.9063 423.5,727.9844 Q424.1875,729.0469 425.5313,729.0469 Q426.1563,729.0469 426.75,728.7813 Q427.3438,728.5 427.9688,727.9219 L427.9688,730.6406 Z " fill="#000000"/><text fill="#000000" font-family="sans-serif" font-size="14" lengthAdjust="spacing" textLength="62.0703" x="439" y="729.8467">UploadJS</text><line style="stroke:#181818;stroke-width:0.5;" x1="411" x2="503.0703" y1="741" y2="741"/><line style="stroke:#181818;stroke-width:0.5;" x1="411" x2="503.0703" y1="749" y2="749"/></g><!--class Association--><g id="elem_Association"><rect codeLine="23" fill="#F1F1F1" height="48" id="Association" rx="2.5" ry="2.5" style="stroke:#181818;stroke-width:0.5;" width="111.7139" x="62" y="486"/><ellipse cx="77" cy="502" fill="#ADD1B2" rx="11" ry="11" style="stroke:#181818;stroke-width:1;"/><path d="M79.9688,507.6406 Q79.3906,507.9375 78.75,508.0781 Q78.1094,508.2344 77.4063,508.2344 Q74.9063,508.2344 73.5781,506.5938 Q72.2656,504.9375 72.2656,501.8125 Q72.2656,498.6875 73.5781,497.0313 Q74.9063,495.375 77.4063,495.375 Q78.1094,495.375 78.75,495.5313 Q79.4063,495.6875 79.9688,495.9844 L79.9688,498.7031 Q79.3438,498.125 78.75,497.8594 Q78.1563,497.5781 77.5313,497.5781 Q76.1875,497.5781 75.5,498.6563 Q74.8125,499.7188 74.8125,501.8125 Q74.8125,503.9063 75.5,504.9844 Q76.1875,506.0469 77.5313,506.0469 Q78.1563,506.0469 78.75,505.7813 Q79.3438,505.5 79.9688,504.9219 L79.9688,507.6406 Z " fill="#000000"/><text fill="#000000" font-family="sans-serif" font-size="14" lengthAdjust="spacing" textLength="79.7139" x="91" y="506.8467">Association</text><line style="stroke:#181818;stroke-width:0.5;" x1="63" x2="172.7139" y1="518" y2="518"/><line style="stroke:#181818;stroke-width:0.5;" x1="63" x2="172.7139" y1="526" y2="526"/></g><!--class Message--><g id="elem_Message"><rect codeLine="24" fill="#F1F1F1" height="48" id="Message" rx="2.5" ry="2.5" style="stroke:#181818;stroke-width:0.5;" width="93.3594" x="209.5" y="486"/><ellipse cx="224.5" cy="502" fill="#ADD1B2" rx="11" ry="11" style="stroke:#181818;stroke-width:1;"/><path d="M227.4688,507.6406 Q226.8906,507.9375 226.25,508.0781 Q225.6094,508.2344 224.9063,508.2344 Q222.4063,508.2344 221.0781,506.5938 Q219.7656,504.9375 219.7656,501.8125 Q219.7656,498.6875 221.0781,497.0313 Q222.4063,495.375 224.9063,495.375 Q225.6094,495.375 226.25,495.5313 Q226.9063,495.6875 227.4688,495.9844 L227.4688,498.7031 Q226.8438,498.125 226.25,497.8594 Q225.6563,497.5781 225.0313,497.5781 Q223.6875,497.5781 223,498.6563 Q222.3125,499.7188 222.3125,501.8125 Q222.3125,503.9063 223,504.9844 Q223.6875,506.0469 225.0313,506.0469 Q225.6563,506.0469 226.25,505.7813 Q226.8438,505.5 227.4688,504.9219 L227.4688,507.6406 Z " fill="#000000"/><text fill="#000000" font-family="sans-serif" font-size="14" lengthAdjust="spacing" textLength="61.3594" x="238.5" y="506.8467">Message</text><line style="stroke:#181818;stroke-width:0.5;" x1="210.5" x2="301.8594" y1="518" y2="518"/><line style="stroke:#181818;stroke-width:0.5;" x1="210.5" x2="301.8594" y1="526" y2="526"/></g><!--class User--><g id="elem_User"><rect codeLine="25" fill="#F1F1F1" height="48" id="User" rx="2.5" ry="2.5" style="stroke:#181818;stroke-width:0.5;" width="63.9102" x="86" y="601"/><ellipse cx="101" cy="617" fill="#ADD1B2" rx="11" ry="11" style="stroke:#181818;stroke-width:1;"/><path d="M103.9688,622.6406 Q103.3906,622.9375 102.75,623.0781 Q102.1094,623.2344 101.4063,623.2344 Q98.9063,623.2344 97.5781,621.5938 Q96.2656,619.9375 96.2656,616.8125 Q96.2656,613.6875 97.5781,612.0313 Q98.9063,610.375 101.4063,610.375 Q102.1094,610.375 102.75,610.5313 Q103.4063,610.6875 103.9688,610.9844 L103.9688,613.7031 Q103.3438,613.125 102.75,612.8594 Q102.1563,612.5781 101.5313,612.5781 Q100.1875,612.5781 99.5,613.6563 Q98.8125,614.7188 98.8125,616.8125 Q98.8125,618.9063 99.5,619.9844 Q100.1875,621.0469 101.5313,621.0469 Q102.1563,621.0469 102.75,620.7813 Q103.3438,620.5 103.9688,619.9219 L103.9688,622.6406 Z " fill="#000000"/><text fill="#000000" font-family="sans-serif" font-size="14" lengthAdjust="spacing" textLength="31.9102" x="115" y="621.8467">User</text><line style="stroke:#181818;stroke-width:0.5;" x1="87" x2="148.9102" y1="633" y2="633"/><line style="stroke:#181818;stroke-width:0.5;" x1="87" x2="148.9102" y1="641" y2="641"/></g><!--class AssociationsJS--><g id="elem_AssociationsJS"><rect codeLine="28" fill="#F1F1F1" height="48" id="AssociationsJS" rx="2.5" ry="2.5" style="stroke:#181818;stroke-width:0.5;" width="132.0234" x="769" y="486"/><ellipse cx="784" cy="502" fill="#ADD1B2" rx="11" ry="11" style="stroke:#181818;stroke-width:1;"/><path d="M786.9688,507.6406 Q786.3906,507.9375 785.75,508.0781 Q785.1094,508.2344 784.4063,508.2344 Q781.9063,508.2344 780.5781,506.5938 Q779.2656,504.9375 779.2656,501.8125 Q779.2656,498.6875 780.5781,497.0313 Q781.9063,495.375 784.4063,495.375 Q785.1094,495.375 785.75,495.5313 Q786.4063,495.6875 786.9688,495.9844 L786.9688,498.7031 Q786.3438,498.125 785.75,497.8594 Q785.1563,497.5781 784.5313,497.5781 Q783.1875,497.5781 782.5,498.6563 Q781.8125,499.7188 781.8125,501.8125 Q781.8125,503.9063 782.5,504.9844 Q783.1875,506.0469 784.5313,506.0469 Q785.1563,506.0469 785.75,505.7813 Q786.3438,505.5 786.9688,504.9219 L786.9688,507.6406 Z " fill="#000000"/><text fill="#000000" font-family="sans-serif" font-size="14" lengthAdjust="spacing" textLength="100.0234" x="798" y="506.8467">AssociationsJS</text><line style="stroke:#181818;stroke-width:0.5;" x1="770" x2="900.0234" y1="518" y2="518"/><line style="stroke:#181818;stroke-width:0.5;" x1="770" x2="900.0234" y1="526" y2="526"/></g><!--class AuthJS--><g id="elem_AuthJS"><rect codeLine="29" fill="#F1F1F1" height="48" id="AuthJS" rx="2.5" ry="2.5" style="stroke:#181818;stroke-width:0.5;" width="77.8281" x="936" y="486"/><ellipse cx="951" cy="502" fill="#ADD1B2" rx="11" ry="11" style="stroke:#181818;stroke-width:1;"/><path d="M953.9688,507.6406 Q953.3906,507.9375 952.75,508.0781 Q952.1094,508.2344 951.4063,508.2344 Q948.9063,508.2344 947.5781,506.5938 Q946.2656,504.9375 946.2656,501.8125 Q946.2656,498.6875 947.5781,497.0313 Q948.9063,495.375 951.4063,495.375 Q952.1094,495.375 952.75,495.5313 Q953.4063,495.6875 953.9688,495.9844 L953.9688,498.7031 Q953.3438,498.125 952.75,497.8594 Q952.1563,497.5781 951.5313,497.5781 Q950.1875,497.5781 949.5,498.6563 Q948.8125,499.7188 948.8125,501.8125 Q948.8125,503.9063 949.5,504.9844 Q950.1875,506.0469 951.5313,506.0469 Q952.1563,506.0469 952.75,505.7813 Q953.3438,505.5 953.9688,504.9219 L953.9688,507.6406 Z " fill="#000000"/><text fill="#000000" font-family="sans-serif" font-size="14" lengthAdjust="spacing" textLength="45.8281" x="965" y="506.8467">AuthJS</text><line style="stroke:#181818;stroke-width:0.5;" x1="937" x2="1012.8281" y1="518" y2="518"/><line style="stroke:#181818;stroke-width:0.5;" x1="937" x2="1012.8281" y1="526" y2="526"/></g><!--class IndexJS--><g id="elem_IndexJS"><rect codeLine="30" fill="#F1F1F1" height="48" id="IndexJS" rx="2.5" ry="2.5" style="stroke:#181818;stroke-width:0.5;" width="83.8027" x="758" y="601"/><ellipse cx="773" cy="617" fill="#ADD1B2" rx="11" ry="11" style="stroke:#181818;stroke-width:1;"/><path d="M775.9688,622.6406 Q775.3906,622.9375 774.75,623.0781 Q774.1094,623.2344 773.4063,623.2344 Q770.9063,623.2344 769.5781,621.5938 Q768.2656,619.9375 768.2656,616.8125 Q768.2656,613.6875 769.5781,612.0313 Q770.9063,610.375 773.4063,610.375 Q774.1094,610.375 774.75,610.5313 Q775.4063,610.6875 775.9688,610.9844 L775.9688,613.7031 Q775.3438,613.125 774.75,612.8594 Q774.1563,612.5781 773.5313,612.5781 Q772.1875,612.5781 771.5,613.6563 Q770.8125,614.7188 770.8125,616.8125 Q770.8125,618.9063 771.5,619.9844 Q772.1875,621.0469 773.5313,621.0469 Q774.1563,621.0469 774.75,620.7813 Q775.3438,620.5 775.9688,619.9219 L775.9688,622.6406 Z " fill="#000000"/><text fill="#000000" font-family="sans-serif" font-size="14" lengthAdjust="spacing" textLength="51.8027" x="787" y="621.8467">IndexJS</text><line style="stroke:#181818;stroke-width:0.5;" x1="759" x2="840.8027" y1="633" y2="633"/><line style="stroke:#181818;stroke-width:0.5;" x1="759" x2="840.8027" y1="641" y2="641"/></g><!--class MessagesRoutesJS--><g id="elem_MessagesRoutesJS"><rect codeLine="31" fill="#F1F1F1" height="48" id="MessagesRoutesJS" rx="2.5" ry="2.5" style="stroke:#181818;stroke-width:0.5;" width="162.2314" x="877" y="601"/><ellipse cx="892" cy="617" fill="#ADD1B2" rx="11" ry="11" style="stroke:#181818;stroke-width:1;"/><path d="M894.9688,622.6406 Q894.3906,622.9375 893.75,623.0781 Q893.1094,623.2344 892.4063,623.2344 Q889.9063,623.2344 888.5781,621.5938 Q887.2656,619.9375 887.2656,616.8125 Q887.2656,613.6875 888.5781,612.0313 Q889.9063,610.375 892.4063,610.375 Q893.1094,610.375 893.75,610.5313 Q894.4063,610.6875 894.9688,610.9844 L894.9688,613.7031 Q894.3438,613.125 893.75,612.8594 Q893.1563,612.5781 892.5313,612.5781 Q891.1875,612.5781 890.5,613.6563 Q889.8125,614.7188 889.8125,616.8125 Q889.8125,618.9063 890.5,619.9844 Q891.1875,621.0469 892.5313,621.0469 Q893.1563,621.0469 893.75,620.7813 Q894.3438,620.5 894.9688,619.9219 L894.9688,622.6406 Z " fill="#000000"/><text fill="#000000" font-family="sans-serif" font-size="14" lengthAdjust="spacing" textLength="130.2314" x="906" y="621.8467">MessagesRoutesJS</text><line style="stroke:#181818;stroke-width:0.5;" x1="878" x2="1038.2314" y1="633" y2="633"/><line style="stroke:#181818;stroke-width:0.5;" x1="878" x2="1038.2314" y1="641" y2="641"/></g><!--link Server to Controllers--><g id="link_Server_Controllers"><path codeLine="34" d="M460,140.09 C460,150.0375 460,161.5031 460,173.1372 C460,174.5914 460,176.0483 460,177.5052 C460,178.2337 460,195.259 460,195.9871 " fill="none" id="Server-to-Controllers" style="stroke:#181818;stroke-width:1;"/><polygon fill="#181818" points="460,201.9871,464,192.9871,460,196.9871,456,192.9871,460,201.9871" style="stroke:#181818;stroke-width:1;"/></g><!--link Controllers to Models--><g id="link_Controllers_Models"><path codeLine="35" d="M447.9604,403.6329 C447.8519,403.9105 447.7428,404.1878 447.6329,404.4647 C447.4131,405.0185 447.1906,405.5708 446.9653,406.1215 C445.1625,410.527 443.1794,414.8306 441,419 C427.14,445.515 401.9725,467.7325 379.985,483.4588 C368.9912,491.3219 358.7925,497.5622 351.1997,501.9055 C349.3015,502.9913 352.8305,501.0798 351.2863,501.9242 " fill="none" id="Controllers-to-Models" style="stroke:#181818;stroke-width:1;"/><polygon fill="#181818" points="346.022,504.803,355.8376,503.9944,350.4089,502.404,351.9993,496.9753,346.022,504.803" style="stroke:#181818;stroke-width:1;"/></g><!--link Controllers to Routes--><g id="link_Controllers_Routes"><path codeLine="36" d="M468.2661,255.8759 C468.4624,256.0628 468.6619,256.2528 468.8646,256.4459 C469.2699,256.832 469.6879,257.2302 470.1184,257.6402 C470.9794,258.4604 471.8903,259.328 472.849,260.2412 C480.5189,267.547 491.2518,277.7705 504.0267,289.9392 C529.5766,314.2766 563.2944,346.3944 597.0113,378.5113 C630.7281,410.6281 664.4441,442.7441 689.9902,467.0777 C702.7632,479.2445 713.4938,489.4657 721.1608,496.7686 C722.1192,497.6815 723.0297,498.5488 723.8903,499.3685 C724.3207,499.7784 724.7385,500.1764 725.1437,500.5623 C725.3462,500.7553 721.2011,496.807 721.3972,496.9939 " fill="none" id="Controllers-to-Routes" style="stroke:#181818;stroke-width:1;"/><polygon fill="#181818" points="725.7418,501.1321,721.9838,492.0284,722.1213,497.6836,716.4662,497.8211,725.7418,501.1321" style="stroke:#181818;stroke-width:1;"/></g><!--link Routes to Middleware--><g id="link_Routes_Middleware"><path codeLine="37" d="M725.9357,527.2708 C725.8586,527.4264 725.7811,527.5828 725.7032,527.74 C725.3915,528.369 725.0731,529.0113 724.7486,529.6661 C719.5559,540.1434 712.7719,553.8319 705.9888,567.5188 C699.2056,581.2056 692.4234,594.8909 687.2345,605.362 C686.9102,606.0165 686.5921,606.6584 686.2807,607.2869 C686.2028,607.444 688.7894,602.2242 688.7124,602.3797 " fill="none" id="Routes-to-Middleware" style="stroke:#181818;stroke-width:1;"/><polygon fill="#181818" points="686.0483,607.7558,693.6285,601.4677,688.2684,603.2757,686.4603,597.9156,686.0483,607.7558" style="stroke:#181818;stroke-width:1;"/></g><!--SRC=[VL9B3i8W4Dtt5AJxUWGJFnjDkj5uWB6CRPL0mr0rCRsxsDAgWB8WvBsPD_DcQA2uG8aiNTe7IfwoHyBiAGGGiJtgAse7lKx6g8TcP-gnhh-RKMIbvAakqu-4GSVYP40QskuzPWq6Za3eY51lo0ibSoIoCVGpqMWb1Ef8we985JMOMibtd1_JckedETRs0hmUyffpWJVG66d1oWUpM5LON7PAOC0S6g60nwtcYgFuxpBUlb-3uZPsgZNuNpzSQzJVHdAy1-WupA7EvB5BtEVBildtFfFlxVQy6qACSlqdav4XuRsS9m00]--></g></svg>