<svg xmlns="http://www.w3.org/2000/svg" xmlns:xlink="http://www.w3.org/1999/xlink" contentStyleType="text/css" height="434px" preserveAspectRatio="none" style="width:1719px;height:434px;background:#FFFFFF;" version="1.1" viewBox="0 0 1719 434" width="1719px" zoomAndPan="magnify"><defs/><g><!--cluster Frontend--><g id="cluster_Frontend"><path d="M8.5,6 L81.7285,6 A3.75,3.75 0 0 1 84.2285,8.5 L91.2285,28.2969 L1709.5,28.2969 A2.5,2.5 0 0 1 1712,30.7969 L1712,424.5 A2.5,2.5 0 0 1 1709.5,427 L8.5,427 A2.5,2.5 0 0 1 6,424.5 L6,8.5 A2.5,2.5 0 0 1 8.5,6 " fill="none" style="stroke:#000000;stroke-width:1.5;"/><line style="stroke:#000000;stroke-width:1.5;" x1="6" x2="91.2285" y1="28.2969" y2="28.2969"/><text fill="#000000" font-family="sans-serif" font-size="14" font-weight="bold" lengthAdjust="spacing" textLength="72.2285" x="10" y="20.9951">Frontend</text></g><!--cluster HTML--><g id="cluster_HTML"><path d="M406.5,57 L451.6191,57 A3.75,3.75 0 0 1 454.1191,59.5 L461.1191,79.2969 L902.5,79.2969 A2.5,2.5 0 0 1 905,81.7969 L905,284.5 A2.5,2.5 0 0 1 902.5,287 L406.5,287 A2.5,2.5 0 0 1 404,284.5 L404,59.5 A2.5,2.5 0 0 1 406.5,57 " fill="none" style="stroke:#000000;stroke-width:1.5;"/><line style="stroke:#000000;stroke-width:1.5;" x1="404" x2="461.1191" y1="79.2969" y2="79.2969"/><text fill="#000000" font-family="sans-serif" font-size="14" font-weight="bold" lengthAdjust="spacing" textLength="44.1191" x="408" y="71.9951">HTML</text></g><!--cluster CSS--><g id="cluster_CSS"><path d="M947.5,172 L978.9404,172 A3.75,3.75 0 0 1 981.4404,174.5 L988.4404,194.2969 L1456.5,194.2969 A2.5,2.5 0 0 1 1459,196.7969 L1459,392.5 A2.5,2.5 0 0 1 1456.5,395 L947.5,395 A2.5,2.5 0 0 1 945,392.5 L945,174.5 A2.5,2.5 0 0 1 947.5,172 " fill="none" style="stroke:#000000;stroke-width:1.5;"/><line style="stroke:#000000;stroke-width:1.5;" x1="945" x2="988.4404" y1="194.2969" y2="194.2969"/><text fill="#000000" font-family="sans-serif" font-size="14" font-weight="bold" lengthAdjust="spacing" textLength="30.4404" x="949" y="186.9951">CSS</text></g><!--cluster IMG--><g id="cluster_IMG"><path d="M1501.5,172 L1533.1318,172 A3.75,3.75 0 0 1 1535.6318,174.5 L1542.6318,194.2969 L1677.5,194.2969 A2.5,2.5 0 0 1 1680,196.7969 L1680,284.5 A2.5,2.5 0 0 1 1677.5,287 L1501.5,287 A2.5,2.5 0 0 1 1499,284.5 L1499,174.5 A2.5,2.5 0 0 1 1501.5,172 " fill="none" style="stroke:#000000;stroke-width:1.5;"/><line style="stroke:#000000;stroke-width:1.5;" x1="1499" x2="1542.6318" y1="194.2969" y2="194.2969"/><text fill="#000000" font-family="sans-serif" font-size="14" font-weight="bold" lengthAdjust="spacing" textLength="30.6318" x="1503" y="186.9951">IMG</text></g><!--class AdminJS--><g id="elem_AdminJS"><rect codeLine="20" fill="#F1F1F1" height="48" id="AdminJS" rx="2.5" ry="2.5" style="stroke:#181818;stroke-width:0.5;" width="89.8799" x="25" y="100"/><ellipse cx="40" cy="116" fill="#ADD1B2" rx="11" ry="11" style="stroke:#181818;stroke-width:1;"/><path d="M42.9688,121.6406 Q42.3906,121.9375 41.75,122.0781 Q41.1094,122.2344 40.4063,122.2344 Q37.9063,122.2344 36.5781,120.5938 Q35.2656,118.9375 35.2656,115.8125 Q35.2656,112.6875 36.5781,111.0313 Q37.9063,109.375 40.4063,109.375 Q41.1094,109.375 41.75,109.5313 Q42.4063,109.6875 42.9688,109.9844 L42.9688,112.7031 Q42.3438,112.125 41.75,111.8594 Q41.1563,111.5781 40.5313,111.5781 Q39.1875,111.5781 38.5,112.6563 Q37.8125,113.7188 37.8125,115.8125 Q37.8125,117.9063 38.5,118.9844 Q39.1875,120.0469 40.5313,120.0469 Q41.1563,120.0469 41.75,119.7813 Q42.3438,119.5 42.9688,118.9219 L42.9688,121.6406 Z " fill="#000000"/><text fill="#000000" font-family="sans-serif" font-size="14" lengthAdjust="spacing" textLength="57.8799" x="54" y="120.8467">AdminJS</text><line style="stroke:#181818;stroke-width:0.5;" x1="26" x2="113.8799" y1="132" y2="132"/><line style="stroke:#181818;stroke-width:0.5;" x1="26" x2="113.8799" y1="140" y2="140"/></g><!--class APIJS--><g id="elem_APIJS"><rect codeLine="21" fill="#F1F1F1" height="48" id="APIJS" rx="2.5" ry="2.5" style="stroke:#181818;stroke-width:0.5;" width="67.1641" x="150.5" y="100"/><ellipse cx="165.5" cy="116" fill="#ADD1B2" rx="11" ry="11" style="stroke:#181818;stroke-width:1;"/><path d="M168.4688,121.6406 Q167.8906,121.9375 167.25,122.0781 Q166.6094,122.2344 165.9063,122.2344 Q163.4063,122.2344 162.0781,120.5938 Q160.7656,118.9375 160.7656,115.8125 Q160.7656,112.6875 162.0781,111.0313 Q163.4063,109.375 165.9063,109.375 Q166.6094,109.375 167.25,109.5313 Q167.9063,109.6875 168.4688,109.9844 L168.4688,112.7031 Q167.8438,112.125 167.25,111.8594 Q166.6563,111.5781 166.0313,111.5781 Q164.6875,111.5781 164,112.6563 Q163.3125,113.7188 163.3125,115.8125 Q163.3125,117.9063 164,118.9844 Q164.6875,120.0469 166.0313,120.0469 Q166.6563,120.0469 167.25,119.7813 Q167.8438,119.5 168.4688,118.9219 L168.4688,121.6406 Z " fill="#000000"/><text fill="#000000" font-family="sans-serif" font-size="14" lengthAdjust="spacing" textLength="35.1641" x="179.5" y="120.8467">APIJS</text><line style="stroke:#181818;stroke-width:0.5;" x1="151.5" x2="216.6641" y1="132" y2="132"/><line style="stroke:#181818;stroke-width:0.5;" x1="151.5" x2="216.6641" y1="140" y2="140"/></g><!--class AuthJS--><g id="elem_AuthJS"><rect codeLine="22" fill="#F1F1F1" height="48" id="AuthJS" rx="2.5" ry="2.5" style="stroke:#181818;stroke-width:0.5;" width="77.8281" x="253" y="100"/><ellipse cx="268" cy="116" fill="#ADD1B2" rx="11" ry="11" style="stroke:#181818;stroke-width:1;"/><path d="M270.9688,121.6406 Q270.3906,121.9375 269.75,122.0781 Q269.1094,122.2344 268.4063,122.2344 Q265.9063,122.2344 264.5781,120.5938 Q263.2656,118.9375 263.2656,115.8125 Q263.2656,112.6875 264.5781,111.0313 Q265.9063,109.375 268.4063,109.375 Q269.1094,109.375 269.75,109.5313 Q270.4063,109.6875 270.9688,109.9844 L270.9688,112.7031 Q270.3438,112.125 269.75,111.8594 Q269.1563,111.5781 268.5313,111.5781 Q267.1875,111.5781 266.5,112.6563 Q265.8125,113.7188 265.8125,115.8125 Q265.8125,117.9063 266.5,118.9844 Q267.1875,120.0469 268.5313,120.0469 Q269.1563,120.0469 269.75,119.7813 Q270.3438,119.5 270.9688,118.9219 L270.9688,121.6406 Z " fill="#000000"/><text fill="#000000" font-family="sans-serif" font-size="14" lengthAdjust="spacing" textLength="45.8281" x="282" y="120.8467">AuthJS</text><line style="stroke:#181818;stroke-width:0.5;" x1="254" x2="329.8281" y1="132" y2="132"/><line style="stroke:#181818;stroke-width:0.5;" x1="254" x2="329.8281" y1="140" y2="140"/></g><!--class DetalleJS--><g id="elem_DetalleJS"><rect codeLine="23" fill="#F1F1F1" height="48" id="DetalleJS" rx="2.5" ry="2.5" style="stroke:#181818;stroke-width:0.5;" width="94.8701" x="22.5" y="215"/><ellipse cx="37.5" cy="231" fill="#ADD1B2" rx="11" ry="11" style="stroke:#181818;stroke-width:1;"/><path d="M40.4688,236.6406 Q39.8906,236.9375 39.25,237.0781 Q38.6094,237.2344 37.9063,237.2344 Q35.4063,237.2344 34.0781,235.5938 Q32.7656,233.9375 32.7656,230.8125 Q32.7656,227.6875 34.0781,226.0313 Q35.4063,224.375 37.9063,224.375 Q38.6094,224.375 39.25,224.5313 Q39.9063,224.6875 40.4688,224.9844 L40.4688,227.7031 Q39.8438,227.125 39.25,226.8594 Q38.6563,226.5781 38.0313,226.5781 Q36.6875,226.5781 36,227.6563 Q35.3125,228.7188 35.3125,230.8125 Q35.3125,232.9063 36,233.9844 Q36.6875,235.0469 38.0313,235.0469 Q38.6563,235.0469 39.25,234.7813 Q39.8438,234.5 40.4688,233.9219 L40.4688,236.6406 Z " fill="#000000"/><text fill="#000000" font-family="sans-serif" font-size="14" lengthAdjust="spacing" textLength="62.8701" x="51.5" y="235.8467">DetalleJS</text><line style="stroke:#181818;stroke-width:0.5;" x1="23.5" x2="116.3701" y1="247" y2="247"/><line style="stroke:#181818;stroke-width:0.5;" x1="23.5" x2="116.3701" y1="255" y2="255"/></g><!--class EventsJS--><g id="elem_EventsJS"><rect codeLine="24" fill="#F1F1F1" height="48" id="EventsJS" rx="2.5" ry="2.5" style="stroke:#181818;stroke-width:0.5;" width="92.416" x="153" y="215"/><ellipse cx="168" cy="231" fill="#ADD1B2" rx="11" ry="11" style="stroke:#181818;stroke-width:1;"/><path d="M170.9688,236.6406 Q170.3906,236.9375 169.75,237.0781 Q169.1094,237.2344 168.4063,237.2344 Q165.9063,237.2344 164.5781,235.5938 Q163.2656,233.9375 163.2656,230.8125 Q163.2656,227.6875 164.5781,226.0313 Q165.9063,224.375 168.4063,224.375 Q169.1094,224.375 169.75,224.5313 Q170.4063,224.6875 170.9688,224.9844 L170.9688,227.7031 Q170.3438,227.125 169.75,226.8594 Q169.1563,226.5781 168.5313,226.5781 Q167.1875,226.5781 166.5,227.6563 Q165.8125,228.7188 165.8125,230.8125 Q165.8125,232.9063 166.5,233.9844 Q167.1875,235.0469 168.5313,235.0469 Q169.1563,235.0469 169.75,234.7813 Q170.3438,234.5 170.9688,233.9219 L170.9688,236.6406 Z " fill="#000000"/><text fill="#000000" font-family="sans-serif" font-size="14" lengthAdjust="spacing" textLength="60.416" x="182" y="235.8467">EventsJS</text><line style="stroke:#181818;stroke-width:0.5;" x1="154" x2="244.416" y1="247" y2="247"/><line style="stroke:#181818;stroke-width:0.5;" x1="154" x2="244.416" y1="255" y2="255"/></g><!--class GeneralJS--><g id="elem_GeneralJS"><rect codeLine="25" fill="#F1F1F1" height="48" id="GeneralJS" rx="2.5" ry="2.5" style="stroke:#181818;stroke-width:0.5;" width="100.1885" x="280" y="215"/><ellipse cx="295" cy="231" fill="#ADD1B2" rx="11" ry="11" style="stroke:#181818;stroke-width:1;"/><path d="M297.9688,236.6406 Q297.3906,236.9375 296.75,237.0781 Q296.1094,237.2344 295.4063,237.2344 Q292.9063,237.2344 291.5781,235.5938 Q290.2656,233.9375 290.2656,230.8125 Q290.2656,227.6875 291.5781,226.0313 Q292.9063,224.375 295.4063,224.375 Q296.1094,224.375 296.75,224.5313 Q297.4063,224.6875 297.9688,224.9844 L297.9688,227.7031 Q297.3438,227.125 296.75,226.8594 Q296.1563,226.5781 295.5313,226.5781 Q294.1875,226.5781 293.5,227.6563 Q292.8125,228.7188 292.8125,230.8125 Q292.8125,232.9063 293.5,233.9844 Q294.1875,235.0469 295.5313,235.0469 Q296.1563,235.0469 296.75,234.7813 Q297.3438,234.5 297.9688,233.9219 L297.9688,236.6406 Z " fill="#000000"/><text fill="#000000" font-family="sans-serif" font-size="14" lengthAdjust="spacing" textLength="68.1885" x="309" y="235.8467">GeneralJS</text><line style="stroke:#181818;stroke-width:0.5;" x1="281" x2="379.1885" y1="247" y2="247"/><line style="stroke:#181818;stroke-width:0.5;" x1="281" x2="379.1885" y1="255" y2="255"/></g><!--class MisAsociacionesJS--><g id="elem_MisAsociacionesJS"><rect codeLine="26" fill="#F1F1F1" height="48" id="MisAsociacionesJS" rx="2.5" ry="2.5" style="stroke:#181818;stroke-width:0.5;" width="158.8135" x="21.5" y="323"/><ellipse cx="36.5" cy="339" fill="#ADD1B2" rx="11" ry="11" style="stroke:#181818;stroke-width:1;"/><path d="M39.4688,344.6406 Q38.8906,344.9375 38.25,345.0781 Q37.6094,345.2344 36.9063,345.2344 Q34.4063,345.2344 33.0781,343.5938 Q31.7656,341.9375 31.7656,338.8125 Q31.7656,335.6875 33.0781,334.0313 Q34.4063,332.375 36.9063,332.375 Q37.6094,332.375 38.25,332.5313 Q38.9063,332.6875 39.4688,332.9844 L39.4688,335.7031 Q38.8438,335.125 38.25,334.8594 Q37.6563,334.5781 37.0313,334.5781 Q35.6875,334.5781 35,335.6563 Q34.3125,336.7188 34.3125,338.8125 Q34.3125,340.9063 35,341.9844 Q35.6875,343.0469 37.0313,343.0469 Q37.6563,343.0469 38.25,342.7813 Q38.8438,342.5 39.4688,341.9219 L39.4688,344.6406 Z " fill="#000000"/><text fill="#000000" font-family="sans-serif" font-size="14" lengthAdjust="spacing" textLength="126.8135" x="50.5" y="343.8467">MisAsociacionesJS</text><line style="stroke:#181818;stroke-width:0.5;" x1="22.5" x2="179.3135" y1="355" y2="355"/><line style="stroke:#181818;stroke-width:0.5;" x1="22.5" x2="179.3135" y1="363" y2="363"/></g><!--class UtilsJS--><g id="elem_UtilsJS"><rect codeLine="27" fill="#F1F1F1" height="48" id="UtilsJS" rx="2.5" ry="2.5" style="stroke:#181818;stroke-width:0.5;" width="75.8252" x="216" y="323"/><ellipse cx="231" cy="339" fill="#ADD1B2" rx="11" ry="11" style="stroke:#181818;stroke-width:1;"/><path d="M233.9688,344.6406 Q233.3906,344.9375 232.75,345.0781 Q232.1094,345.2344 231.4063,345.2344 Q228.9063,345.2344 227.5781,343.5938 Q226.2656,341.9375 226.2656,338.8125 Q226.2656,335.6875 227.5781,334.0313 Q228.9063,332.375 231.4063,332.375 Q232.1094,332.375 232.75,332.5313 Q233.4063,332.6875 233.9688,332.9844 L233.9688,335.7031 Q233.3438,335.125 232.75,334.8594 Q232.1563,334.5781 231.5313,334.5781 Q230.1875,334.5781 229.5,335.6563 Q228.8125,336.7188 228.8125,338.8125 Q228.8125,340.9063 229.5,341.9844 Q230.1875,343.0469 231.5313,343.0469 Q232.1563,343.0469 232.75,342.7813 Q233.3438,342.5 233.9688,341.9219 L233.9688,344.6406 Z " fill="#000000"/><text fill="#000000" font-family="sans-serif" font-size="14" lengthAdjust="spacing" textLength="43.8252" x="245" y="343.8467">UtilsJS</text><line style="stroke:#181818;stroke-width:0.5;" x1="217" x2="290.8252" y1="355" y2="355"/><line style="stroke:#181818;stroke-width:0.5;" x1="217" x2="290.8252" y1="363" y2="363"/></g><!--class AdminHTML--><g id="elem_AdminHTML"><rect codeLine="3" fill="#F1F1F1" height="48" id="AdminHTML" rx="2.5" ry="2.5" style="stroke:#181818;stroke-width:0.5;" width="115.8223" x="428" y="100"/><ellipse cx="443" cy="116" fill="#ADD1B2" rx="11" ry="11" style="stroke:#181818;stroke-width:1;"/><path d="M445.9688,121.6406 Q445.3906,121.9375 444.75,122.0781 Q444.1094,122.2344 443.4063,122.2344 Q440.9063,122.2344 439.5781,120.5938 Q438.2656,118.9375 438.2656,115.8125 Q438.2656,112.6875 439.5781,111.0313 Q440.9063,109.375 443.4063,109.375 Q444.1094,109.375 444.75,109.5313 Q445.4063,109.6875 445.9688,109.9844 L445.9688,112.7031 Q445.3438,112.125 444.75,111.8594 Q444.1563,111.5781 443.5313,111.5781 Q442.1875,111.5781 441.5,112.6563 Q440.8125,113.7188 440.8125,115.8125 Q440.8125,117.9063 441.5,118.9844 Q442.1875,120.0469 443.5313,120.0469 Q444.1563,120.0469 444.75,119.7813 Q445.3438,119.5 445.9688,118.9219 L445.9688,121.6406 Z " fill="#000000"/><text fill="#000000" font-family="sans-serif" font-size="14" lengthAdjust="spacing" textLength="83.8223" x="457" y="120.8467">AdminHTML</text><line style="stroke:#181818;stroke-width:0.5;" x1="429" x2="542.8223" y1="132" y2="132"/><line style="stroke:#181818;stroke-width:0.5;" x1="429" x2="542.8223" y1="140" y2="140"/></g><!--class DetalleHTML--><g id="elem_DetalleHTML"><rect codeLine="4" fill="#F1F1F1" height="48" id="DetalleHTML" rx="2.5" ry="2.5" style="stroke:#181818;stroke-width:0.5;" width="120.8125" x="579.5" y="100"/><ellipse cx="594.5" cy="116" fill="#ADD1B2" rx="11" ry="11" style="stroke:#181818;stroke-width:1;"/><path d="M597.4688,121.6406 Q596.8906,121.9375 596.25,122.0781 Q595.6094,122.2344 594.9063,122.2344 Q592.4063,122.2344 591.0781,120.5938 Q589.7656,118.9375 589.7656,115.8125 Q589.7656,112.6875 591.0781,111.0313 Q592.4063,109.375 594.9063,109.375 Q595.6094,109.375 596.25,109.5313 Q596.9063,109.6875 597.4688,109.9844 L597.4688,112.7031 Q596.8438,112.125 596.25,111.8594 Q595.6563,111.5781 595.0313,111.5781 Q593.6875,111.5781 593,112.6563 Q592.3125,113.7188 592.3125,115.8125 Q592.3125,117.9063 593,118.9844 Q593.6875,120.0469 595.0313,120.0469 Q595.6563,120.0469 596.25,119.7813 Q596.8438,119.5 597.4688,118.9219 L597.4688,121.6406 Z " fill="#000000"/><text fill="#000000" font-family="sans-serif" font-size="14" lengthAdjust="spacing" textLength="88.8125" x="608.5" y="120.8467">DetalleHTML</text><line style="stroke:#181818;stroke-width:0.5;" x1="580.5" x2="699.3125" y1="132" y2="132"/><line style="stroke:#181818;stroke-width:0.5;" x1="580.5" x2="699.3125" y1="140" y2="140"/></g><!--class GeneralHTML--><g id="elem_GeneralHTML"><rect codeLine="5" fill="#F1F1F1" height="48" id="GeneralHTML" rx="2.5" ry="2.5" style="stroke:#181818;stroke-width:0.5;" width="126.1309" x="736" y="100"/><ellipse cx="751" cy="116" fill="#ADD1B2" rx="11" ry="11" style="stroke:#181818;stroke-width:1;"/><path d="M753.9688,121.6406 Q753.3906,121.9375 752.75,122.0781 Q752.1094,122.2344 751.4063,122.2344 Q748.9063,122.2344 747.5781,120.5938 Q746.2656,118.9375 746.2656,115.8125 Q746.2656,112.6875 747.5781,111.0313 Q748.9063,109.375 751.4063,109.375 Q752.1094,109.375 752.75,109.5313 Q753.4063,109.6875 753.9688,109.9844 L753.9688,112.7031 Q753.3438,112.125 752.75,111.8594 Q752.1563,111.5781 751.5313,111.5781 Q750.1875,111.5781 749.5,112.6563 Q748.8125,113.7188 748.8125,115.8125 Q748.8125,117.9063 749.5,118.9844 Q750.1875,120.0469 751.5313,120.0469 Q752.1563,120.0469 752.75,119.7813 Q753.3438,119.5 753.9688,118.9219 L753.9688,121.6406 Z " fill="#000000"/><text fill="#000000" font-family="sans-serif" font-size="14" lengthAdjust="spacing" textLength="94.1309" x="765" y="120.8467">GeneralHTML</text><line style="stroke:#181818;stroke-width:0.5;" x1="737" x2="861.1309" y1="132" y2="132"/><line style="stroke:#181818;stroke-width:0.5;" x1="737" x2="861.1309" y1="140" y2="140"/></g><!--class IndexHTML--><g id="elem_IndexHTML"><rect codeLine="6" fill="#F1F1F1" height="48" id="IndexHTML" rx="2.5" ry="2.5" style="stroke:#181818;stroke-width:0.5;" width="109.7451" x="431" y="215"/><ellipse cx="446" cy="231" fill="#ADD1B2" rx="11" ry="11" style="stroke:#181818;stroke-width:1;"/><path d="M448.9688,236.6406 Q448.3906,236.9375 447.75,237.0781 Q447.1094,237.2344 446.4063,237.2344 Q443.9063,237.2344 442.5781,235.5938 Q441.2656,233.9375 441.2656,230.8125 Q441.2656,227.6875 442.5781,226.0313 Q443.9063,224.375 446.4063,224.375 Q447.1094,224.375 447.75,224.5313 Q448.4063,224.6875 448.9688,224.9844 L448.9688,227.7031 Q448.3438,227.125 447.75,226.8594 Q447.1563,226.5781 446.5313,226.5781 Q445.1875,226.5781 444.5,227.6563 Q443.8125,228.7188 443.8125,230.8125 Q443.8125,232.9063 444.5,233.9844 Q445.1875,235.0469 446.5313,235.0469 Q447.1563,235.0469 447.75,234.7813 Q448.3438,234.5 448.9688,233.9219 L448.9688,236.6406 Z " fill="#000000"/><text fill="#000000" font-family="sans-serif" font-size="14" lengthAdjust="spacing" textLength="77.7451" x="460" y="235.8467">IndexHTML</text><line style="stroke:#181818;stroke-width:0.5;" x1="432" x2="539.7451" y1="247" y2="247"/><line style="stroke:#181818;stroke-width:0.5;" x1="432" x2="539.7451" y1="255" y2="255"/></g><!--class MisAsociacionesHTML--><g id="elem_MisAsociacionesHTML"><rect codeLine="7" fill="#F1F1F1" height="48" id="MisAsociacionesHTML" rx="2.5" ry="2.5" style="stroke:#181818;stroke-width:0.5;" width="184.7559" x="576.5" y="215"/><ellipse cx="591.5" cy="231" fill="#ADD1B2" rx="11" ry="11" style="stroke:#181818;stroke-width:1;"/><path d="M594.4688,236.6406 Q593.8906,236.9375 593.25,237.0781 Q592.6094,237.2344 591.9063,237.2344 Q589.4063,237.2344 588.0781,235.5938 Q586.7656,233.9375 586.7656,230.8125 Q586.7656,227.6875 588.0781,226.0313 Q589.4063,224.375 591.9063,224.375 Q592.6094,224.375 593.25,224.5313 Q593.9063,224.6875 594.4688,224.9844 L594.4688,227.7031 Q593.8438,227.125 593.25,226.8594 Q592.6563,226.5781 592.0313,226.5781 Q590.6875,226.5781 590,227.6563 Q589.3125,228.7188 589.3125,230.8125 Q589.3125,232.9063 590,233.9844 Q590.6875,235.0469 592.0313,235.0469 Q592.6563,235.0469 593.25,234.7813 Q593.8438,234.5 594.4688,233.9219 L594.4688,236.6406 Z " fill="#000000"/><text fill="#000000" font-family="sans-serif" font-size="14" lengthAdjust="spacing" textLength="152.7559" x="605.5" y="235.8467">MisAsociacionesHTML</text><line style="stroke:#181818;stroke-width:0.5;" x1="577.5" x2="760.2559" y1="247" y2="247"/><line style="stroke:#181818;stroke-width:0.5;" x1="577.5" x2="760.2559" y1="255" y2="255"/></g><!--class AdminCSS--><g id="elem_AdminCSS"><rect codeLine="10" fill="#F1F1F1" height="48" id="AdminCSS" rx="2.5" ry="2.5" style="stroke:#181818;stroke-width:0.5;" width="104.4131" x="988" y="215"/><ellipse cx="1003" cy="231" fill="#ADD1B2" rx="11" ry="11" style="stroke:#181818;stroke-width:1;"/><path d="M1005.9688,236.6406 Q1005.3906,236.9375 1004.75,237.0781 Q1004.1094,237.2344 1003.4063,237.2344 Q1000.9063,237.2344 999.5781,235.5938 Q998.2656,233.9375 998.2656,230.8125 Q998.2656,227.6875 999.5781,226.0313 Q1000.9063,224.375 1003.4063,224.375 Q1004.1094,224.375 1004.75,224.5313 Q1005.4063,224.6875 1005.9688,224.9844 L1005.9688,227.7031 Q1005.3438,227.125 1004.75,226.8594 Q1004.1563,226.5781 1003.5313,226.5781 Q1002.1875,226.5781 1001.5,227.6563 Q1000.8125,228.7188 1000.8125,230.8125 Q1000.8125,232.9063 1001.5,233.9844 Q1002.1875,235.0469 1003.5313,235.0469 Q1004.1563,235.0469 1004.75,234.7813 Q1005.3438,234.5 1005.9688,233.9219 L1005.9688,236.6406 Z " fill="#000000"/><text fill="#000000" font-family="sans-serif" font-size="14" lengthAdjust="spacing" textLength="72.4131" x="1017" y="235.8467">AdminCSS</text><line style="stroke:#181818;stroke-width:0.5;" x1="989" x2="1091.4131" y1="247" y2="247"/><line style="stroke:#181818;stroke-width:0.5;" x1="989" x2="1091.4131" y1="255" y2="255"/></g><!--class BaseCSS--><g id="elem_BaseCSS"><rect codeLine="11" fill="#F1F1F1" height="48" id="BaseCSS" rx="2.5" ry="2.5" style="stroke:#181818;stroke-width:0.5;" width="93.6396" x="1127" y="215"/><ellipse cx="1142" cy="231" fill="#ADD1B2" rx="11" ry="11" style="stroke:#181818;stroke-width:1;"/><path d="M1144.9688,236.6406 Q1144.3906,236.9375 1143.75,237.0781 Q1143.1094,237.2344 1142.4063,237.2344 Q1139.9063,237.2344 1138.5781,235.5938 Q1137.2656,233.9375 1137.2656,230.8125 Q1137.2656,227.6875 1138.5781,226.0313 Q1139.9063,224.375 1142.4063,224.375 Q1143.1094,224.375 1143.75,224.5313 Q1144.4063,224.6875 1144.9688,224.9844 L1144.9688,227.7031 Q1144.3438,227.125 1143.75,226.8594 Q1143.1563,226.5781 1142.5313,226.5781 Q1141.1875,226.5781 1140.5,227.6563 Q1139.8125,228.7188 1139.8125,230.8125 Q1139.8125,232.9063 1140.5,233.9844 Q1141.1875,235.0469 1142.5313,235.0469 Q1143.1563,235.0469 1143.75,234.7813 Q1144.3438,234.5 1144.9688,233.9219 L1144.9688,236.6406 Z " fill="#000000"/><text fill="#000000" font-family="sans-serif" font-size="14" lengthAdjust="spacing" textLength="61.6396" x="1156" y="235.8467">BaseCSS</text><line style="stroke:#181818;stroke-width:0.5;" x1="1128" x2="1219.6396" y1="247" y2="247"/><line style="stroke:#181818;stroke-width:0.5;" x1="1128" x2="1219.6396" y1="255" y2="255"/></g><!--class DetalleCSS--><g id="elem_DetalleCSS"><rect codeLine="12" fill="#F1F1F1" height="48" id="DetalleCSS" rx="2.5" ry="2.5" style="stroke:#181818;stroke-width:0.5;" width="109.4033" x="1256.5" y="215"/><ellipse cx="1271.5" cy="231" fill="#ADD1B2" rx="11" ry="11" style="stroke:#181818;stroke-width:1;"/><path d="M1274.4688,236.6406 Q1273.8906,236.9375 1273.25,237.0781 Q1272.6094,237.2344 1271.9063,237.2344 Q1269.4063,237.2344 1268.0781,235.5938 Q1266.7656,233.9375 1266.7656,230.8125 Q1266.7656,227.6875 1268.0781,226.0313 Q1269.4063,224.375 1271.9063,224.375 Q1272.6094,224.375 1273.25,224.5313 Q1273.9063,224.6875 1274.4688,224.9844 L1274.4688,227.7031 Q1273.8438,227.125 1273.25,226.8594 Q1272.6563,226.5781 1272.0313,226.5781 Q1270.6875,226.5781 1270,227.6563 Q1269.3125,228.7188 1269.3125,230.8125 Q1269.3125,232.9063 1270,233.9844 Q1270.6875,235.0469 1272.0313,235.0469 Q1272.6563,235.0469 1273.25,234.7813 Q1273.8438,234.5 1274.4688,233.9219 L1274.4688,236.6406 Z " fill="#000000"/><text fill="#000000" font-family="sans-serif" font-size="14" lengthAdjust="spacing" textLength="77.4033" x="1285.5" y="235.8467">DetalleCSS</text><line style="stroke:#181818;stroke-width:0.5;" x1="1257.5" x2="1364.9033" y1="247" y2="247"/><line style="stroke:#181818;stroke-width:0.5;" x1="1257.5" x2="1364.9033" y1="255" y2="255"/></g><!--class GeneralCSS--><g id="elem_GeneralCSS"><rect codeLine="13" fill="#F1F1F1" height="48" id="GeneralCSS" rx="2.5" ry="2.5" style="stroke:#181818;stroke-width:0.5;" width="114.7217" x="977.5" y="323"/><ellipse cx="992.5" cy="339" fill="#ADD1B2" rx="11" ry="11" style="stroke:#181818;stroke-width:1;"/><path d="M995.4688,344.6406 Q994.8906,344.9375 994.25,345.0781 Q993.6094,345.2344 992.9063,345.2344 Q990.4063,345.2344 989.0781,343.5938 Q987.7656,341.9375 987.7656,338.8125 Q987.7656,335.6875 989.0781,334.0313 Q990.4063,332.375 992.9063,332.375 Q993.6094,332.375 994.25,332.5313 Q994.9063,332.6875 995.4688,332.9844 L995.4688,335.7031 Q994.8438,335.125 994.25,334.8594 Q993.6563,334.5781 993.0313,334.5781 Q991.6875,334.5781 991,335.6563 Q990.3125,336.7188 990.3125,338.8125 Q990.3125,340.9063 991,341.9844 Q991.6875,343.0469 993.0313,343.0469 Q993.6563,343.0469 994.25,342.7813 Q994.8438,342.5 995.4688,341.9219 L995.4688,344.6406 Z " fill="#000000"/><text fill="#000000" font-family="sans-serif" font-size="14" lengthAdjust="spacing" textLength="82.7217" x="1006.5" y="343.8467">GeneralCSS</text><line style="stroke:#181818;stroke-width:0.5;" x1="978.5" x2="1091.2217" y1="355" y2="355"/><line style="stroke:#181818;stroke-width:0.5;" x1="978.5" x2="1091.2217" y1="363" y2="363"/></g><!--class LoginCSS--><g id="elem_LoginCSS"><rect codeLine="14" fill="#F1F1F1" height="48" id="LoginCSS" rx="2.5" ry="2.5" style="stroke:#181818;stroke-width:0.5;" width="97.5635" x="1128" y="323"/><ellipse cx="1143" cy="339" fill="#ADD1B2" rx="11" ry="11" style="stroke:#181818;stroke-width:1;"/><path d="M1145.9688,344.6406 Q1145.3906,344.9375 1144.75,345.0781 Q1144.1094,345.2344 1143.4063,345.2344 Q1140.9063,345.2344 1139.5781,343.5938 Q1138.2656,341.9375 1138.2656,338.8125 Q1138.2656,335.6875 1139.5781,334.0313 Q1140.9063,332.375 1143.4063,332.375 Q1144.1094,332.375 1144.75,332.5313 Q1145.4063,332.6875 1145.9688,332.9844 L1145.9688,335.7031 Q1145.3438,335.125 1144.75,334.8594 Q1144.1563,334.5781 1143.5313,334.5781 Q1142.1875,334.5781 1141.5,335.6563 Q1140.8125,336.7188 1140.8125,338.8125 Q1140.8125,340.9063 1141.5,341.9844 Q1142.1875,343.0469 1143.5313,343.0469 Q1144.1563,343.0469 1144.75,342.7813 Q1145.3438,342.5 1145.9688,341.9219 L1145.9688,344.6406 Z " fill="#000000"/><text fill="#000000" font-family="sans-serif" font-size="14" lengthAdjust="spacing" textLength="65.5635" x="1157" y="343.8467">LoginCSS</text><line style="stroke:#181818;stroke-width:0.5;" x1="1129" x2="1224.5635" y1="355" y2="355"/><line style="stroke:#181818;stroke-width:0.5;" x1="1129" x2="1224.5635" y1="363" y2="363"/></g><!--class MisAsociacionesCSS--><g id="elem_MisAsociacionesCSS"><rect codeLine="15" fill="#F1F1F1" height="48" id="MisAsociacionesCSS" rx="2.5" ry="2.5" style="stroke:#181818;stroke-width:0.5;" width="173.3467" x="1261.5" y="323"/><ellipse cx="1276.5" cy="339" fill="#ADD1B2" rx="11" ry="11" style="stroke:#181818;stroke-width:1;"/><path d="M1279.4688,344.6406 Q1278.8906,344.9375 1278.25,345.0781 Q1277.6094,345.2344 1276.9063,345.2344 Q1274.4063,345.2344 1273.0781,343.5938 Q1271.7656,341.9375 1271.7656,338.8125 Q1271.7656,335.6875 1273.0781,334.0313 Q1274.4063,332.375 1276.9063,332.375 Q1277.6094,332.375 1278.25,332.5313 Q1278.9063,332.6875 1279.4688,332.9844 L1279.4688,335.7031 Q1278.8438,335.125 1278.25,334.8594 Q1277.6563,334.5781 1277.0313,334.5781 Q1275.6875,334.5781 1275,335.6563 Q1274.3125,336.7188 1274.3125,338.8125 Q1274.3125,340.9063 1275,341.9844 Q1275.6875,343.0469 1277.0313,343.0469 Q1277.6563,343.0469 1278.25,342.7813 Q1278.8438,342.5 1279.4688,341.9219 L1279.4688,344.6406 Z " fill="#000000"/><text fill="#000000" font-family="sans-serif" font-size="14" lengthAdjust="spacing" textLength="141.3467" x="1290.5" y="343.8467">MisAsociacionesCSS</text><line style="stroke:#181818;stroke-width:0.5;" x1="1262.5" x2="1433.8467" y1="355" y2="355"/><line style="stroke:#181818;stroke-width:0.5;" x1="1262.5" x2="1433.8467" y1="363" y2="363"/></g><!--class DefaultPNG--><g id="elem_DefaultPNG"><rect codeLine="18" fill="#F1F1F1" height="48" id="DefaultPNG" rx="2.5" ry="2.5" style="stroke:#181818;stroke-width:0.5;" width="112.917" x="1542.5" y="215"/><ellipse cx="1557.5" cy="231" fill="#ADD1B2" rx="11" ry="11" style="stroke:#181818;stroke-width:1;"/><path d="M1560.4688,236.6406 Q1559.8906,236.9375 1559.25,237.0781 Q1558.6094,237.2344 1557.9063,237.2344 Q1555.4063,237.2344 1554.0781,235.5938 Q1552.7656,233.9375 1552.7656,230.8125 Q1552.7656,227.6875 1554.0781,226.0313 Q1555.4063,224.375 1557.9063,224.375 Q1558.6094,224.375 1559.25,224.5313 Q1559.9063,224.6875 1560.4688,224.9844 L1560.4688,227.7031 Q1559.8438,227.125 1559.25,226.8594 Q1558.6563,226.5781 1558.0313,226.5781 Q1556.6875,226.5781 1556,227.6563 Q1555.3125,228.7188 1555.3125,230.8125 Q1555.3125,232.9063 1556,233.9844 Q1556.6875,235.0469 1558.0313,235.0469 Q1558.6563,235.0469 1559.25,234.7813 Q1559.8438,234.5 1560.4688,233.9219 L1560.4688,236.6406 Z " fill="#000000"/><text fill="#000000" font-family="sans-serif" font-size="14" lengthAdjust="spacing" textLength="80.917" x="1571.5" y="235.8467">DefaultPNG</text><line style="stroke:#181818;stroke-width:0.5;" x1="1543.5" x2="1654.417" y1="247" y2="247"/><line style="stroke:#181818;stroke-width:0.5;" x1="1543.5" x2="1654.417" y1="255" y2="255"/></g><!--link HTML to CSS--><g id="link_HTML_CSS"><path codeLine="29" d="M905.0643,141.2708 C905.1414,141.4264 905.2189,141.5828 905.2968,141.74 C905.6085,142.369 905.9269,143.0113 906.2514,143.6661 C911.4441,154.1434 918.2281,167.8319 925.0113,181.5187 C931.7944,195.2056 938.5766,208.8909 943.7655,219.362 C944.0898,220.0165 944.4079,220.6584 944.7193,221.2869 C944.7972,221.444 942.2106,216.2242 942.2876,216.3797 " fill="none" id="HTML-to-CSS" style="stroke:#181818;stroke-width:1;"/><polygon fill="#181818" points="944.9517,221.7558,944.5397,211.9156,942.7316,217.2757,937.3715,215.4677,944.9517,221.7558" style="stroke:#181818;stroke-width:1;"/></g><!--link HTML to IMG--><g id="link_HTML_IMG"><path codeLine="30" d="M905.5896,125.0256 C906.1471,125.0277 906.7303,125.0301 907.3387,125.0326 C908.5554,125.0377 909.873,125.0436 911.2879,125.0503 C914.1177,125.0638 917.3367,125.0807 920.9167,125.102 C935.2364,125.1871 955.3316,125.3416 979.3958,125.6208 C1027.5241,126.1791 1091.5281,127.2356 1156.9563,129.2313 C1287.8125,133.2225 1424.365,140.97 1451,156 C1469.915,166.675 1483.7775,186.705 1492.9787,204.2963 C1494.1289,206.4952 1495.2062,208.656 1496.2115,210.7556 C1496.7141,211.8054 1497.1987,212.84 1497.6654,213.8564 C1497.8988,214.3646 1498.1276,214.8682 1498.352,215.367 C1498.4642,215.6163 1498.5753,215.8645 1498.6853,216.1114 C1498.7402,216.2348 1496.3638,210.8725 1496.4182,210.9953 " fill="none" id="HTML-to-IMG" style="stroke:#181818;stroke-width:1;"/><polygon fill="#181818" points="1498.8494,216.4807,1498.8596,206.6319,1496.8234,211.9096,1491.5457,209.8734,1498.8494,216.4807" style="stroke:#181818;stroke-width:1;"/></g><!--SRC=[TPBT2e8m68RFkuhXkRSGM9OP6e9r0MD-sMXjucO4uRtdQ8RxwJlRyspZVTawJEwu1HJjUy4Ly2P2xnMQffl5uLmMCzH369OI9Ss3SgqSdeB2Z470PC2XnonWSjx0Ay1BAXCf2CM42WxojsEq0sxh-a- -oJXuWoNur8JsXSdiYqAqeUkTnFC69t1UPdxW5AvuOAewPOiZYox7Uacgt5uFwcO1qyXYkoTm9Ira-bdCwM2vYw9Cat5blaKShxyFO05Ty0C0]--></g></svg>